<svg width="117" height="30" fill="none" xmlns="http://www.w3.org/2000/svg"><path d="M14.975 17.276l.945-.327-.233-.673h-.712v1zm-7.784 0v-1h-.713l-.232.673.945.327zM5.903 21v1h.712l.233-.673L5.903 21zm-4.116 0l-.942-.338L.365 22h1.422v-1zM8.815 1.428v-1H8.11l-.238.662.942.338zm4.564 0l.94-.338-.237-.662h-.703v1zM20.407 21v1h1.421l-.48-1.338-.941.338zm-4.144 0l-.946.327.233.673h.713v-1zm-2.352-6.86v1h1.404l-.46-1.327-.944.327zm-2.828-8.176l.945-.327-.945-2.732-.946 2.732.946.327zM8.255 14.14l-.945-.327-.46 1.327h1.405v-1zm6.72 2.136H7.19v2h7.784v-2zm-8.73.673l-1.287 3.724 1.89.654 1.288-3.724-1.89-.654zM5.904 20H1.787v2h4.116v-2zm-3.175 1.338L9.756 1.766 7.873 1.09.845 20.662l1.883.676zm6.087-18.91h4.564v-2H8.815v2zm3.622-.662l7.028 19.572 1.883-.676L14.32 1.09l-1.883.676zM20.407 20h-4.144v2h4.144v-2zm-3.2.673L15.92 16.95l-1.89.654 1.288 3.724 1.89-.654zm-2.351-6.86l-2.828-8.176-1.89.654 2.828 8.176 1.89-.654zm-4.719-8.176L7.31 13.813l1.89.654 2.828-8.176-1.89-.654zM8.255 15.14h5.656v-2H8.255v2zm23.907-9.204l-.47.883.007.004.008.004.455-.891zM34.234 7.7l-.823.57 1.823 2.631V7.7h-1zm0-2.212v-1h-1v1h1zm3.948 0h1v-1h-1v1zm-.868 19.46l-.889-.459-.003.006.892.453zm-2.604 2.688l-.492-.87-.01.005.502.865zm-9.632-.532l-.592.806.005.004.587-.81zm-2.38-4.2v-1h-1.111l.116 1.105.995-.105zm3.892 0l.96-.278-.209-.722h-.751v1zm1.316 1.68l.527-.85-.006-.003-.521.853zm5.264-.392l-.688-.726-.01.01.698.716zm1.064-5.488h1v-3.201l-1.823 2.632.823.569zm-2.1 1.82l-.477-.88-.008.005.485.875zm-6.608-.28l.527-.85-.527.85zm-2.576-2.828l-.895.447.004.008.005.009.886-.464zm0-8.4l-.887-.464-.005.011.892.453zm2.548-2.8l-.517-.856-.007.004.524.852zm8.176 4.592l-.88.476.005.01.875-.486zM32.162 9.24l-.508.862.01.005.01.006.488-.873zm-4.06-.028l-.5-.867.5.867zM26.59 10.78l-.87-.494-.005.008.875.486zm0 4.872l-.885.466.007.014.008.014.87-.494zm1.512 1.596l-.519.855.012.007.507-.862zm4.06.028l.487.873.01-.006.01-.005-.507-.862zm1.512-1.568l.874.486.005-.01-.88-.476zM29.11 6.236c1.02 0 1.871.205 2.582.583l.94-1.766c-1.045-.555-2.228-.817-3.522-.817v2zm2.597.59c.747.382 1.305.866 1.704 1.443l1.645-1.138c-.608-.879-1.432-1.571-2.44-2.086l-.91 1.782zm3.527.874V5.488h-2V7.7h2zm-1-1.212h3.948v-2h-3.948v2zm2.948-1v15.624h2V5.488h-2zm0 15.624c0 1.3-.261 2.418-.757 3.377l1.777.918c.662-1.28.98-2.72.98-4.295h-2zm-.76 3.383c-.486.956-1.21 1.71-2.204 2.27l.983 1.742c1.322-.746 2.332-1.784 3.004-3.106l-1.783-.906zm-2.215 2.276c-.973.566-2.191.873-3.697.873v2c1.779 0 3.36-.365 4.702-1.143l-1.005-1.73zm-3.697.873c-2.047 0-3.638-.475-4.846-1.35l-1.173 1.62c1.63 1.179 3.66 1.73 6.019 1.73v-2zm-4.841-1.346c-1.166-.855-1.819-1.997-1.977-3.499l-1.989.21c.215 2.045 1.149 3.703 2.783 4.901l1.183-1.612zm-2.971-2.394h3.892v-2h-3.892v2zm2.931-.722c.28.966.886 1.724 1.755 2.255l1.043-1.706c-.474-.29-.746-.652-.877-1.105l-1.921.556zm1.749 2.251c.877.546 1.899.795 3.02.795v-2c-.821 0-1.46-.18-1.965-.493l-1.055 1.698zm3.02.795c1.357 0 2.545-.42 3.47-1.32l-1.396-1.433c-.494.482-1.154.753-2.074.753v2zm3.46-1.31c.979-.928 1.376-2.266 1.376-3.806h-2c0 1.223-.313 1.938-.752 2.354l1.375 1.452zm1.376-3.806v-2.408h-2v2.408h2zm-1.823-2.977c-.402.58-.975 1.088-1.754 1.51l.953 1.758c1.013-.548 1.84-1.255 2.446-2.13l-1.645-1.138zm-1.762 1.514c-.71.393-1.547.603-2.54.603v2c1.285 0 2.464-.275 3.509-.853l-.969-1.75zm-2.54.603a5.664 5.664 0 01-3.056-.858l-1.055 1.7a7.662 7.662 0 004.112 1.158v-2zm-3.056-.858c-.92-.57-1.66-1.374-2.217-2.441l-1.772.927c.71 1.36 1.688 2.44 2.934 3.214l1.055-1.7zm-2.209-2.425c-.537-1.074-.818-2.326-.818-3.781h-2c0 1.718.334 3.285 1.03 4.675l1.788-.894zm-.818-3.781c0-1.435.28-2.666.815-3.72l-1.783-.905c-.698 1.374-1.032 2.924-1.032 4.625h2zm.81-3.709c.559-1.069 1.29-1.86 2.185-2.41l-1.047-1.705c-1.232.757-2.2 1.831-2.91 3.189l1.772.926zm2.178-2.407c.92-.554 1.943-.836 3.096-.836v-2c-1.499 0-2.883.372-4.13 1.124l1.034 1.712zm9.22 6.172c0-1.082-.213-2.07-.686-2.922l-1.749.972c.274.492.435 1.128.435 1.95h2zm-.68-2.912c-.457-.843-1.091-1.51-1.905-1.965l-.975 1.746c.455.255.83.633 1.12 1.17l1.76-.95zm-1.885-1.954a4.963 4.963 0 00-2.551-.698v2c.547 0 1.054.138 1.537.422l1.014-1.724zm-2.551-.698a4.97 4.97 0 00-2.515.665l.997 1.734c.461-.265.96-.399 1.518-.399v-2zm-2.515.665c-.789.454-1.414 1.114-1.883 1.941l1.74.988c.314-.554.697-.94 1.14-1.195l-.997-1.734zm-1.888 1.95c-.471.849-.685 1.826-.685 2.893h2c0-.8.159-1.428.434-1.922l-1.749-.972zm-.685 2.893c0 1.069.214 2.055.675 2.93l1.77-.932c-.287-.543-.445-1.2-.445-1.998h-2zm.69 2.958c.467.823 1.087 1.486 1.863 1.957l1.037-1.71c-.455-.276-.844-.677-1.16-1.235l-1.74.988zm1.875 1.964c.782.46 1.628.698 2.523.698v-2a2.915 2.915 0 01-1.51-.422l-1.014 1.724zm2.523.698c.898 0 1.747-.221 2.531-.66l-.975-1.745a3.124 3.124 0 01-1.556.405v2zm2.55-.67a5.072 5.072 0 001.88-1.944l-1.749-.972a3.06 3.06 0 01-1.145 1.192l1.015 1.724zm1.885-1.955c.468-.864.68-1.856.68-2.939h-2c0 .821-.16 1.472-.44 1.989l1.76.95zm21.765-1.763v1h.847l.14-.836-.987-.164zm-11.34 0v-1h-1.087l.09 1.083.997-.083zm1.176 2.632l-.677.736.677-.736zm5.656-.924v-1h-.622l-.275.558.897.442zm4.228 0l.958.287.386-1.287h-1.344v1zm-2.576 3.696l.6.8.008-.006-.608-.794zm-8.708.448l-.496.868.008.005.008.004.48-.877zm-2.772-2.828l-.88.474.005.01.875-.484zm0-8.428l-.88-.474.88.474zm2.744-2.8l.486.874-.486-.874zm8.008-.028l-.48.877.005.003.475-.88zm2.716 2.716l-.88.475.005.008.004.009.871-.492zm-3.08 2.884v1h1.019l-.019-1.018-1 .018zM51.278 9.38l-.656.755.006.005.006.005.644-.765zm-5.068-.028l.663.749.002-.002-.665-.747zm-1.204 2.436l-.99-.141-.163 1.141h1.153v-1zm10.424 1.12c0 .517-.035.965-.098 1.348l1.972.328c.086-.513.126-1.073.126-1.676h-2zm.888.512h-11.34v2h11.34v-2zm-12.336 1.083c.11 1.318.585 2.448 1.495 3.285l1.354-1.472c-.47-.433-.78-1.057-.856-1.979l-1.993.166zm1.495 3.285c.89.818 1.987 1.216 3.225 1.216v-2c-.778 0-1.38-.237-1.871-.688l-1.354 1.472zm3.225 1.216c.873 0 1.683-.189 2.386-.613.705-.426 1.24-1.05 1.62-1.821l-1.795-.884c-.237.48-.528.793-.859.993-.333.2-.769.325-1.352.325v2zm3.108-1.876h4.228v-2H51.81v2zm3.27-1.287c-.386 1.286-1.119 2.342-2.225 3.189l1.215 1.588c1.432-1.095 2.416-2.502 2.926-4.203l-1.916-.574zm-2.218 3.183c-1.069.802-2.407 1.228-4.076 1.228v2c2.027 0 3.806-.526 5.276-1.628l-1.2-1.6zm-4.076 1.228c-1.342 0-2.518-.292-3.552-.857l-.96 1.754c1.356.742 2.868 1.103 4.512 1.103v-2zm-3.536-.848a6.214 6.214 0 01-2.393-2.445l-1.75.97a8.212 8.212 0 003.151 3.211l.992-1.736zm-2.387-2.434c-.564-1.047-.86-2.28-.86-3.726h-2c0 1.727.356 3.294 1.099 4.674l1.76-.948zm-.86-3.726c0-1.467.297-2.709.86-3.754l-1.761-.948c-.744 1.381-1.1 2.959-1.1 4.702h2zm.86-3.754c.565-1.05 1.344-1.842 2.349-2.4l-.972-1.748a7.837 7.837 0 00-3.138 3.2l1.76.948zm2.349-2.4c1.008-.56 2.19-.854 3.574-.854v-2c-1.677 0-3.202.36-4.546 1.106l.972 1.748zm3.574-.854c1.327 0 2.474.284 3.467.829l.962-1.754c-1.321-.724-2.806-1.075-4.429-1.075v2zm3.473.832a5.568 5.568 0 012.311 2.31l1.76-.949a7.567 7.567 0 00-3.12-3.121l-.95 1.76zm2.32 2.328c.558.987.851 2.148.851 3.512h2c0-1.66-.36-3.169-1.11-4.496l-1.74.984zm-1.209 2.373c-.023-1.268-.497-2.353-1.448-3.154l-1.288 1.53c.468.394.722.914.736 1.662l2-.037zm-1.436-3.144c-.909-.79-2.016-1.169-3.26-1.169v2c.81 0 1.438.236 1.948.679l1.312-1.51zm-3.26-1.169c-1.194 0-2.258.375-3.128 1.149l1.328 1.494c.474-.42 1.053-.643 1.8-.643v-2zm-3.127 1.147c-.866.768-1.355 1.815-1.53 3.044l1.98.282c.122-.861.436-1.438.876-1.828l-1.326-1.498zm-.54 4.185h7.363v-2h-7.364v2zm27.36-5.76l-.718.696.005.005.713-.701zM74.075 21v1h1v-1h-1zm-3.92 0h-1v1h1v-1zm-.924-11.396l-.737.676.01.01.727-.686zm-5.096 0l-.727-.687v.001l.727.686zM63.211 21v1h1v-1h-1zm-3.92 0h-1v1h1v-1zm0-15.512v-1h-1v1h1zm3.92 0h1v-1h-1v1zm0 1.932h-1v2.915l1.79-2.301-.79-.614zM65.2 5.852l.422.907.01-.005-.432-.902zm2.688.412c1.616 0 2.837.504 3.762 1.46l1.437-1.392c-1.352-1.396-3.118-2.068-5.199-2.068v2zm3.767 1.465c.907.921 1.421 2.264 1.421 4.171h2c0-2.274-.623-4.18-1.995-5.573l-1.425 1.402zm1.421 4.171V21h2v-9.1h-2zm1 8.1h-3.92v2h3.92v-2zm-2.92 1v-8.568h-2V21h2zm0-8.568c0-1.39-.349-2.615-1.196-3.514l-1.455 1.372c.384.408.651 1.069.651 2.142h2zM69.97 8.928c-.838-.913-1.965-1.332-3.258-1.332v2c.835 0 1.389.253 1.783.684l1.475-1.352zm-3.26-1.332c-1.306 0-2.447.415-3.303 1.321l1.454 1.374c.414-.438.99-.695 1.85-.695v-2zm-3.303 1.322c-.848.899-1.197 2.123-1.197 3.514h2c0-1.073.267-1.734.652-2.142l-1.455-1.372zm-1.197 3.514V21h2v-8.568h-2zm1 7.568h-3.92v2h3.92v-2zm-2.92 1V5.488h-2V21h2zm-1-14.512h3.92v-2h-3.92v2zm2.92-1V7.42h2V5.488h-2zM64 8.034a4.316 4.316 0 011.62-1.275l-.843-1.814a6.315 6.315 0 00-2.356 1.861L64 8.034zm1.63-1.28a5.16 5.16 0 012.256-.49v-2c-1.11 0-2.154.225-3.118.686l.861 1.804zm12.144 2.29l.877.48.004-.006-.88-.474zm2.716-2.8l.492.87.01-.005-.502-.865zm8.736.448l-.613.79.007.005.006.005.6-.8zm2.548 4.032v1h1.277l-.306-1.24-.97.24zm-4.228 0l-.949.316.228.684h.721v-1zM86.4 9.156l-.6.8.016.012.016.011.568-.823zm-4.62.644l.776.631.007-.008-.783-.623zm0 6.888l-.783.623.008.008.775-.631zm5.768-.924v-1h-.715l-.231.676.946.324zm4.228 0l.969.248.319-1.248h-1.288v1zm-2.548 4.004l.615.789-.615-.789zm-8.736.504l-.502.865.01.006.492-.871zm-2.716-2.8l-.88.474.003.006.877-.48zm.02-4.228c0-1.468.298-2.697.858-3.72l-1.755-.96c-.747 1.366-1.103 2.937-1.103 4.68h2zm.86-3.726c.568-1.053 1.341-1.846 2.328-2.403L80 5.373c-1.328.75-2.365 1.824-3.104 3.197l1.76.948zm2.338-2.41c.988-.573 2.136-.872 3.474-.872v-2c-1.649 0-3.151.373-4.478 1.143l1.004 1.73zm3.474-.872c1.75 0 3.107.439 4.147 1.246l1.226-1.58c-1.461-1.134-3.277-1.666-5.373-1.666v2zm4.16 1.256c1.062.796 1.796 1.93 2.177 3.472l1.942-.48C92.27 8.554 91.305 7 89.828 5.892l-1.2 1.6zm3.148 2.232h-4.228v2h4.228v-2zm-3.28.684c-.286-.861-.794-1.569-1.528-2.075L85.83 9.979c.349.24.606.578.767 1.061l1.898-.632zM87 8.356c-.728-.546-1.604-.788-2.56-.788v2c.612 0 1.043.15 1.36.388l1.2-1.6zm-2.56-.788c-1.401 0-2.585.532-3.442 1.61l1.565 1.244c.45-.564 1.038-.854 1.877-.854v-2zm-3.435 1.6c-.851 1.046-1.205 2.452-1.205 4.076h2c0-1.363.3-2.253.756-2.813L81.003 9.17zM79.8 13.244c0 1.61.356 3.009 1.197 4.067l1.566-1.245c-.466-.585-.763-1.483-.763-2.822h-2zm1.204 4.075c.86 1.057 2.043 1.573 3.436 1.573v-2c-.847 0-1.438-.287-1.884-.835l-1.552 1.262zm3.436 1.573c.942 0 1.809-.212 2.532-.707.728-.498 1.224-1.225 1.522-2.097l-1.892-.648c-.187.546-.452.884-.76 1.095-.312.214-.757.357-1.402.357v2zm3.108-2.128h4.228v-2h-4.228v2zm3.26-1.248c-.38 1.484-1.114 2.62-2.195 3.463l1.23 1.578c1.458-1.137 2.422-2.668 2.902-4.545l-1.938-.496zm-2.195 3.463c-1.063.829-2.421 1.273-4.145 1.273v2c2.085 0 3.9-.545 5.375-1.695l-1.23-1.578zm-4.145 1.273c-1.343 0-2.495-.292-3.484-.85L80 21.142c1.326.749 2.824 1.11 4.468 1.11v-2zm-3.474-.845a6.125 6.125 0 01-2.34-2.415l-1.755.96a8.126 8.126 0 003.091 3.185l1.004-1.73zm-2.337-2.41c-.563-1.044-.86-2.286-.86-3.753h-2c0 1.743.355 3.32 1.099 4.702l1.76-.948zm30.831-11.509l.922.387.583-1.387h-1.505v1zm-9.604 22.848v1h.664l.258-.612-.922-.388zm-4.172 0l-.917-.399-.608 1.399h1.525v-1zm3.36-7.728l.917.399.169-.388-.161-.391-.925.38zm-6.216-15.12v-1h-1.493l.568 1.38.925-.38zm4.396 0l.938-.347-.242-.653h-.696v1zm4.004 10.836l-.938.347.931 2.52.943-2.516-.936-.351zm4.06-10.836v-1h-.693l-.244.65.937.35zm3.25-.388l-9.605 22.85 1.844.774 9.604-22.848-1.844-.774zm-8.682 22.236H95.71v2h4.172v-2zm-3.255 1.399l3.36-7.728-1.834-.798-3.36 7.728 1.834.798zm3.368-8.507L93.78 5.108l-1.85.76 6.216 15.12 1.85-.76zm-7.141-13.74h4.396v-2h-4.396v2zm3.458-.653l4.004 10.836 1.876-.694L98.19 5.141l-1.876.694zm5.878 10.84l4.06-10.836-1.873-.702-4.06 10.836 1.873.702zm3.124-10.187h4.172v-2h-4.172v2zm6.257 14.064l-.707.707.015.015.015.014.677-.736zm0-3.276l.692.722h.001l-.693-.722zm3.472 0l-.707.707.007.008.008.007.692-.722zm0 3.276l.692.722.008-.007.007-.008-.707-.707zm-1.708-.356c-.491 0-.827-.141-1.087-.38l-1.354 1.472c.674.62 1.513.908 2.441.908v-2zm-1.057-.351c-.254-.254-.379-.548-.379-.945h-2c0 .91.323 1.717.965 2.36l1.414-1.415zm-.379-.945c0-.397.124-.672.364-.902l-1.384-1.444c-.656.629-.98 1.436-.98 2.346h2zm.365-.903c.261-.25.593-.393 1.071-.393v-2c-.94 0-1.785.306-2.457.95l1.386 1.443zm1.071-.393c.452 0 .758.137 1.001.38l1.414-1.415c-.653-.653-1.485-.965-2.415-.965v2zm1.016.394c.24.23.364.505.364.902h2c0-.91-.324-1.717-.98-2.346l-1.384 1.444zm.364.902c0 .397-.125.69-.379.945l1.414 1.414c.642-.642.965-1.45.965-2.359h-2zm-.364.93c-.24.23-.552.366-1.016.366v2c.917 0 1.744-.294 2.4-.922l-1.384-1.444z" fill="#F21162"/></svg>