<svg width="41" height="40" fill="none" xmlns="http://www.w3.org/2000/svg"><path d="M13.845 3.975c-2.381.656-4.746 1.37-7.093 2.14a1.203 1.203 0 00-.82.975c-1.385 10.393 1.815 17.975 5.633 22.97a26.812 26.812 0 005.717 5.582c.866.61 1.63 1.05 2.233 1.333.3.142.545.237.732.295.082.029.167.05.253.063.085-.014.169-.035.25-.063a5.57 5.57 0 00.735-.295c.6-.282 1.367-.725 2.233-1.333a26.812 26.812 0 005.717-5.582c3.817-4.992 7.018-12.577 5.633-22.97a1.2 1.2 0 00-.82-.975 152.78 152.78 0 00-7.093-2.138c-2.775-.752-5.328-1.31-6.655-1.31-1.325 0-3.88.558-6.655 1.31v-.002zM13.18 1.4C15.893.663 18.775 0 20.5 0c1.725 0 4.608.662 7.32 1.4 2.775.75 5.572 1.638 7.218 2.175a3.85 3.85 0 012.61 3.155c1.49 11.192-1.968 19.488-6.163 24.975a29.437 29.437 0 01-6.293 6.133 17.902 17.902 0 01-2.62 1.562c-.7.33-1.452.6-2.072.6-.62 0-1.37-.27-2.073-.6a17.893 17.893 0 01-2.62-1.563 29.444 29.444 0 01-6.292-6.132C5.32 26.218 1.862 17.923 3.352 6.73a3.85 3.85 0 012.61-3.155A156.13 156.13 0 0113.18 1.4z" fill="#F21162"/><path d="M27.635 12.865a1.25 1.25 0 010 1.77l-7.5 7.5a1.25 1.25 0 01-1.77 0l-3.75-3.75a1.252 1.252 0 011.77-1.77l2.865 2.868 6.615-6.618a1.249 1.249 0 011.77 0z" fill="#F21162"/></svg>