<svg width="41" height="40" fill="none" xmlns="http://www.w3.org/2000/svg"><g clip-path="url(#clip0)" fill="#F21162"><path d="M20.5 37.5a17.5 17.5 0 110-35 17.5 17.5 0 010 35zm0 2.5a20 20 0 100-40 20 20 0 000 40z"/><path d="M28.788 25.035a1.25 1.25 0 011.37 1.84 11.245 11.245 0 01-9.745 5.625 11.244 11.244 0 01-9.745-5.625 1.25 1.25 0 011.37-1.84h.012l.042.012.168.038.63.137c.537.115 1.287.27 2.143.423 1.732.31 3.804.605 5.38.605 1.575 0 3.65-.295 5.38-.605a66.534 66.534 0 002.772-.56l.168-.038.042-.01.013-.005v.003zM12.39 11.415c1.907-3.56 10.05-.3 2.38 8.585-11.24-3.99-5.875-10.745-2.38-8.585zm16.22 0c3.495-2.16 8.86 4.595-2.38 8.585-7.668-8.885.475-12.145 2.38-8.585z"/></g><defs><clipPath id="clip0"><path fill="#fff" transform="translate(.5)" d="M0 0h40v40H0z"/></clipPath></defs></svg>