<svg width="22" height="17" fill="none" xmlns="http://www.w3.org/2000/svg"><path d="M11.07.748h.123c1.13.004 6.857.045 8.4.46a2.763 2.763 0 011.946 1.953c.14.523.237 1.214.303 1.928l.014.143.03.357.01.143c.09 1.257.101 2.434.103 2.691v.103a44.117 44.117 0 01-.113 2.833l-.011.144-.012.143c-.07.787-.171 1.568-.324 2.143a2.76 2.76 0 01-1.945 1.952c-1.595.429-7.658.46-8.498.46h-.195c-.425 0-2.182-.008-4.025-.07l-.233-.01-.12-.005-.235-.01-.235-.009c-1.526-.067-2.98-.176-3.65-.357a2.76 2.76 0 01-1.945-1.951c-.153-.574-.255-1.356-.323-2.143l-.011-.144-.011-.143A43.174 43.174 0 010 8.559V8.39c.003-.295.014-1.317.088-2.444l.01-.142.004-.072.01-.143.031-.357.014-.143C.223 4.375.32 3.682.459 3.16a2.76 2.76 0 011.946-1.95c.67-.18 2.123-.29 3.65-.358l.233-.01.236-.008.119-.004.235-.01a137.21 137.21 0 013.927-.07h.265V.748zM8.8 5.162v6.625l5.716-3.311L8.8 5.162z" fill="#fff"/></svg>