<svg width="22" height="22" fill="none" xmlns="http://www.w3.org/2000/svg"><path d="M0 1.576C0 .706.723 0 1.616 0h18.768C21.277 0 22 .705 22 1.576v18.848c0 .87-.723 1.576-1.616 1.576H1.616C.723 22 0 21.295 0 20.424V1.576zm6.797 16.84V8.483H3.495v9.935h3.302zm-1.65-11.29c1.15 0 1.867-.763 1.867-1.717-.02-.975-.715-1.716-1.845-1.716S3.3 4.436 3.3 5.41c0 .955.716 1.716 1.825 1.716h.022zm6.748 11.29V12.87c0-.297.022-.594.11-.806.238-.593.781-1.207 1.694-1.207 1.195 0 1.672.91 1.672 2.246v5.315h3.301V12.72c0-3.053-1.628-4.472-3.8-4.472-1.752 0-2.537.963-2.977 1.64v.035h-.022l.022-.034V8.482h-3.3c.041.933 0 9.935 0 9.935h3.3z" fill="#fff"/></svg>