<svg width="22" height="22" fill="none" xmlns="http://www.w3.org/2000/svg"><g clip-path="url(#clip0)"><path d="M18.701 3.198A10.799 10.799 0 0010.991 0C4.988 0 .095 4.892.089 10.898c0 1.924.503 3.795 1.453 5.452L0 22l5.78-1.515c1.6.87 3.391 1.326 5.212 1.327h.005c6.006 0 10.898-4.893 10.904-10.904a10.86 10.86 0 00-3.201-7.71h.001zm-7.71 16.768a9.037 9.037 0 01-4.614-1.265l-.33-.198-3.429.9.916-3.346-.215-.345a9.02 9.02 0 01-1.384-4.82C1.935 5.908 6 1.84 10.997 1.84a9.02 9.02 0 016.408 2.655 9.016 9.016 0 012.65 6.407c-.005 5.004-4.07 9.064-9.063 9.064zm4.971-6.784c-.27-.136-1.608-.795-1.86-.888-.25-.09-.433-.136-.612.136-.183.27-.705.888-.862 1.066-.157.183-.319.203-.591.068-.271-.137-1.15-.423-2.19-1.354-.81-.722-1.354-1.616-1.516-1.886-.157-.273-.015-.418.121-.555.12-.12.271-.319.407-.475.138-.157.183-.273.272-.454.09-.184.047-.341-.02-.477-.069-.136-.612-1.48-.842-2.021-.22-.535-.444-.461-.612-.468-.156-.01-.34-.01-.522-.01a1.002 1.002 0 00-.728.34c-.25.272-.95.93-.95 2.274 0 1.344.977 2.635 1.114 2.818.135.183 1.917 2.931 4.652 4.114a14.98 14.98 0 001.552.574c.653.21 1.243.178 1.713.11.523-.08 1.61-.66 1.84-1.296.226-.638.226-1.183.157-1.297-.067-.115-.25-.183-.523-.319z" fill="#fff"/></g><defs><clipPath id="clip0"><path fill="#fff" d="M0 0h22v22H0z"/></clipPath></defs></svg>