<svg width="22" height="19" fill="none" xmlns="http://www.w3.org/2000/svg"><path d="M6.91 18.625c8.303 0 12.845-6.88 12.845-12.834 0-.193 0-.388-.009-.58A9.192 9.192 0 0022 2.87a9.154 9.154 0 01-2.597.711 4.54 4.54 0 001.99-2.498 8.984 8.984 0 01-2.87 1.09 4.518 4.518 0 00-7.695 4.117 12.822 12.822 0 01-9.304-4.715 4.522 4.522 0 001.4 6.026A4.57 4.57 0 01.88 7.04v.061a4.521 4.521 0 003.619 4.425c-.387.107-.788.16-1.19.158a4.433 4.433 0 01-.844-.078 4.514 4.514 0 004.218 3.13 9.059 9.059 0 01-5.61 1.935A8.697 8.697 0 010 16.611a12.849 12.849 0 006.91 2.014z" fill="#fff"/></svg>