<svg width="110" height="22" fill="none" xmlns="http://www.w3.org/2000/svg"><path d="M10.049 2.927c.3-.921 1.603-.921 1.902 0l1.294 3.983a1 1 0 00.951.69h4.188c.969 0 1.371 1.24.588 1.81l-3.388 2.461a1 1 0 00-.364 1.118l1.295 3.983c.299.921-.756 1.688-1.54 1.118l-3.387-2.461a1 1 0 00-1.176 0L7.024 18.09c-.783.57-1.838-.197-1.539-1.118L6.78 12.99a1 1 0 00-.363-1.118L3.028 9.41c-.783-.57-.38-1.81.588-1.81h4.188a1 1 0 00.95-.69l1.295-3.983zm22 0c.3-.921 1.603-.921 1.902 0l1.294 3.983a1 1 0 00.951.69h4.188c.969 0 1.371 1.24.588 1.81l-3.388 2.461a1 1 0 00-.364 1.118l1.295 3.983c.299.921-.755 1.688-1.54 1.118l-3.387-2.461a1 1 0 00-1.176 0l-3.388 2.461c-.784.57-1.838-.197-1.539-1.118l1.294-3.983a1 1 0 00-.363-1.118L25.028 9.41c-.783-.57-.38-1.81.588-1.81h4.188a1 1 0 00.95-.69l1.295-3.983zm22 0c.3-.921 1.603-.921 1.902 0l1.294 3.983a1 1 0 00.951.69h4.188c.969 0 1.371 1.24.588 1.81l-3.388 2.461a1 1 0 00-.364 1.118l1.295 3.983c.299.921-.755 1.688-1.54 1.118l-3.387-2.461a1 1 0 00-1.176 0l-3.388 2.461c-.784.57-1.838-.197-1.539-1.118l1.294-3.983a1 1 0 00-.363-1.118L47.028 9.41c-.783-.57-.38-1.81.588-1.81h4.188a1 1 0 00.95-.69l1.295-3.983zm22 0c.3-.921 1.603-.921 1.902 0l1.294 3.983a1 1 0 00.951.69h4.188c.969 0 1.371 1.24.588 1.81l-3.388 2.461a1 1 0 00-.364 1.118l1.295 3.983c.299.921-.755 1.688-1.54 1.118l-3.387-2.461a1 1 0 00-1.176 0l-3.388 2.461c-.784.57-1.838-.197-1.539-1.118l1.294-3.983a1 1 0 00-.363-1.118L69.028 9.41c-.783-.57-.38-1.81.588-1.81h4.188a1 1 0 00.95-.69l1.295-3.983zm22 0c.3-.921 1.603-.921 1.902 0l1.294 3.983a1 1 0 00.951.69h4.188c.969 0 1.371 1.24.588 1.81l-3.388 2.461a1.001 1.001 0 00-.364 1.118l1.295 3.983c.299.921-.756 1.688-1.539 1.118l-3.388-2.461a1 1 0 00-1.176 0l-3.388 2.461c-.784.57-1.838-.197-1.539-1.118l1.294-3.983a1 1 0 00-.363-1.118L91.028 9.41c-.783-.57-.38-1.81.588-1.81h4.188a1 1 0 00.95-.69l1.295-3.983z" fill="#F21162"/></svg>