<svg width="117" height="30" viewBox="0 0 117 30" fill="none" xmlns="http://www.w3.org/2000/svg">
<path d="M14.9746 17.276L15.9197 16.9491L15.6869 16.276H14.9746V17.276ZM7.19059 17.276V16.276H6.47834L6.24552 16.9491L7.19059 17.276ZM5.90259 21V22H6.61485L6.84766 21.3269L5.90259 21ZM1.78659 21L0.845432 20.662L0.364993 22H1.78659V21ZM8.81459 1.428V0.427998H8.11116L7.87343 1.09004L8.81459 1.428ZM13.3786 1.428L14.3198 1.09004L14.082 0.427998H13.3786V1.428ZM20.4066 21V22H21.8282L21.3478 20.662L20.4066 21ZM16.2626 21L15.3175 21.3269L15.5503 22H16.2626V21ZM13.9106 14.14V15.14H15.3146L14.8557 13.8131L13.9106 14.14ZM11.0826 5.964L12.0277 5.63711L11.0826 2.90485L10.1375 5.63711L11.0826 5.964ZM8.25459 14.14L7.30953 13.8131L6.85057 15.14H8.25459V14.14ZM14.9746 16.276H7.19059V18.276H14.9746V16.276ZM6.24552 16.9491L4.95752 20.6731L6.84766 21.3269L8.13566 17.6029L6.24552 16.9491ZM5.90259 20H1.78659V22H5.90259V20ZM2.72776 21.338L9.75576 1.76595L7.87343 1.09004L0.845432 20.662L2.72776 21.338ZM8.81459 2.428H13.3786V0.427998H8.81459V2.428ZM12.4374 1.76595L19.4654 21.338L21.3478 20.662L14.3198 1.09004L12.4374 1.76595ZM20.4066 20H16.2626V22H20.4066V20ZM17.2077 20.6731L15.9197 16.9491L14.0295 17.6029L15.3175 21.3269L17.2077 20.6731ZM14.8557 13.8131L12.0277 5.63711L10.1375 6.29089L12.9655 14.4669L14.8557 13.8131ZM10.1375 5.63711L7.30953 13.8131L9.19966 14.4669L12.0277 6.29089L10.1375 5.63711ZM8.25459 15.14H13.9106V13.14H8.25459V15.14ZM32.1616 5.936L31.692 6.81887L31.6993 6.8228L31.7068 6.8266L32.1616 5.936ZM34.2336 7.7L33.4114 8.26921L35.2336 10.9013V7.7H34.2336ZM34.2336 5.488V4.488H33.2336V5.488H34.2336ZM38.1816 5.488H39.1816V4.488H38.1816V5.488ZM37.3136 24.948L36.4251 24.489L36.4221 24.495L37.3136 24.948ZM34.7096 27.636L34.2179 26.7651L34.2074 26.7712L34.7096 27.636ZM25.0776 27.104L24.4862 27.9104L24.4913 27.9141L25.0776 27.104ZM22.6976 22.904V21.904H21.5868L21.7031 23.0087L22.6976 22.904ZM26.5896 22.904L27.5501 22.6259L27.3411 21.904H26.5896V22.904ZM27.9056 24.584L28.4335 23.7347L28.427 23.7307L27.9056 24.584ZM33.1696 24.192L32.4818 23.466L32.4719 23.4755L33.1696 24.192ZM34.2336 18.704H35.2336V15.5027L33.4114 18.1348L34.2336 18.704ZM32.1336 20.524L31.6573 19.6447L31.6495 19.649L32.1336 20.524ZM25.5256 20.244L26.0529 19.3944L26.0529 19.3944L25.5256 20.244ZM22.9496 17.416L22.0551 17.8632L22.0592 17.8714L22.0635 17.8795L22.9496 17.416ZM22.9496 9.016L22.0634 8.55247L22.0579 8.56331L22.9496 9.016ZM25.4976 6.216L24.9809 5.35979L24.9743 5.36383L25.4976 6.216ZM33.6736 10.808L32.7938 11.2835L32.7994 11.2936L33.6736 10.808ZM32.1616 9.24L31.6545 10.1019L31.6641 10.1075L31.6737 10.1129L32.1616 9.24ZM28.1016 9.212L27.6026 8.34538L27.6026 8.34538L28.1016 9.212ZM26.5896 10.78L25.7198 10.2864L25.7154 10.2944L26.5896 10.78ZM26.5896 15.652L25.7046 16.1177L25.712 16.1318L25.7199 16.1456L26.5896 15.652ZM28.1016 17.248L27.5832 18.1033L27.5945 18.1099L28.1016 17.248ZM32.1616 17.276L32.6494 18.1489L32.659 18.1435L32.6686 18.1379L32.1616 17.276ZM33.6736 15.708L34.5478 16.1937L34.5533 16.1835L33.6736 15.708ZM29.1096 6.236C30.1302 6.236 30.9813 6.44089 31.692 6.81887L32.6312 5.05313C31.5871 4.49778 30.4036 4.236 29.1096 4.236V6.236ZM31.7068 6.8266C32.4538 7.20808 33.0116 7.6918 33.4114 8.26921L35.0558 7.13079C34.4475 6.2522 33.624 5.55992 32.6163 5.04539L31.7068 6.8266ZM35.2336 7.7V5.488H33.2336V7.7H35.2336ZM34.2336 6.488H38.1816V4.488H34.2336V6.488ZM37.1816 5.488V21.112H39.1816V5.488H37.1816ZM37.1816 21.112C37.1816 22.4122 36.9208 23.5296 36.4251 24.489L38.202 25.407C38.8637 24.1264 39.1816 22.6865 39.1816 21.112H37.1816ZM36.4221 24.495C35.9364 25.4506 35.2111 26.2045 34.218 26.7652L35.2012 28.5068C36.5227 27.7608 37.5334 26.7227 38.205 25.4011L36.4221 24.495ZM34.2074 26.7712C33.2338 27.3366 32.0157 27.644 30.5096 27.644V29.644C32.2887 29.644 33.8707 29.2794 35.2117 28.5008L34.2074 26.7712ZM30.5096 27.644C28.4627 27.644 26.8724 27.1685 25.6638 26.2939L24.4913 27.9141C26.1201 29.0929 28.1511 29.644 30.5096 29.644V27.644ZM25.6689 26.2976C24.5031 25.4426 23.8501 24.301 23.6921 22.7993L21.7031 23.0087C21.9183 25.0536 22.852 26.712 24.4862 27.9104L25.6689 26.2976ZM22.6976 23.904H26.5896V21.904H22.6976V23.904ZM25.629 23.1821C25.9086 24.1481 26.5145 24.9059 27.3841 25.4373L28.427 23.7307C27.9526 23.4408 27.6811 23.0786 27.5501 22.6259L25.629 23.1821ZM27.3776 25.4333C28.2551 25.9788 29.2768 26.228 30.3976 26.228V24.228C29.577 24.228 28.9373 24.0479 28.4335 23.7347L27.3776 25.4333ZM30.3976 26.228C31.7546 26.228 32.9429 25.8084 33.8672 24.9085L32.4719 23.4755C31.9776 23.9569 31.3179 24.228 30.3976 24.228V26.228ZM33.8573 24.918C34.8368 23.99 35.2336 22.6521 35.2336 21.112H33.2336C33.2336 22.3346 32.921 23.05 32.4818 23.466L33.8573 24.918ZM35.2336 21.112V18.704H33.2336V21.112H35.2336ZM33.4114 18.1348C33.0093 18.7155 32.4361 19.2228 31.6573 19.6447L32.6098 21.4033C33.623 20.8545 34.4498 20.1485 35.0558 19.2732L33.4114 18.1348ZM31.6495 19.649C30.9395 20.0417 30.1022 20.252 29.1096 20.252V22.252C30.3943 22.252 31.573 21.9769 32.6176 21.399L31.6495 19.649ZM29.1096 20.252C27.9843 20.252 26.9731 19.9655 26.0529 19.3944L24.9982 21.0936C26.2434 21.8665 27.6215 22.252 29.1096 22.252V20.252ZM26.0529 19.3944C25.1335 18.8237 24.3938 18.0196 23.8357 16.9525L22.0635 17.8795C22.7746 19.2391 23.7522 20.3203 24.9982 21.0936L26.0529 19.3944ZM23.844 16.9688C23.3073 15.8953 23.0256 14.6431 23.0256 13.188H21.0256C21.0256 14.9063 21.3599 16.4727 22.0551 17.8632L23.844 16.9688ZM23.0256 13.188C23.0256 11.7533 23.3066 10.5218 23.8412 9.46869L22.0579 8.56331C21.3605 9.93688 21.0256 11.4867 21.0256 13.188H23.0256ZM23.8357 9.4795C24.395 8.41015 25.1253 7.61807 26.0208 7.06817L24.9743 5.36383C23.7419 6.12059 22.7734 7.19519 22.0635 8.5525L23.8357 9.4795ZM26.0142 7.07219C26.9333 6.51756 27.9572 6.236 29.1096 6.236V4.236C27.6113 4.236 26.2271 4.60777 24.9809 5.35981L26.0142 7.07219ZM35.2336 13.244C35.2336 12.1621 35.0211 11.1744 34.5477 10.3224L32.7994 11.2936C33.0727 11.7856 33.2336 12.4219 33.2336 13.244H35.2336ZM34.5533 10.3325C34.0972 9.48872 33.463 8.82173 32.6494 8.36706L31.6737 10.1129C32.1294 10.3676 32.5033 10.7459 32.7939 11.2835L34.5533 10.3325ZM32.6686 8.37807C31.8821 7.91542 31.026 7.68 30.1176 7.68V9.68C30.6651 9.68 31.1717 9.81791 31.6545 10.1019L32.6686 8.37807ZM30.1176 7.68C29.2189 7.68 28.3742 7.90114 27.6026 8.34538L28.6005 10.0786C29.061 9.81353 29.5603 9.68 30.1176 9.68V7.68ZM27.6026 8.34538C26.8144 8.7992 26.1894 9.45918 25.7199 10.2864L27.4592 11.2736C27.7737 10.7195 28.1567 10.3341 28.6005 10.0786L27.6026 8.34538ZM25.7154 10.2944C25.2436 11.1436 25.0296 12.1209 25.0296 13.188H27.0296C27.0296 12.3884 27.1889 11.7604 27.4637 11.2656L25.7154 10.2944ZM25.0296 13.188C25.0296 14.2569 25.2442 15.2429 25.7046 16.1177L27.4745 15.1863C27.1883 14.6425 27.0296 13.9858 27.0296 13.188H25.0296ZM25.7199 16.1456C26.1873 16.9692 26.8066 17.6325 27.5833 18.1032L28.6199 16.3928C28.1646 16.1169 27.7758 15.7161 27.4592 15.1584L25.7199 16.1456ZM27.5945 18.1099C28.3768 18.5701 29.223 18.808 30.1176 18.808V16.808C29.5935 16.808 29.0957 16.6726 28.6086 16.3861L27.5945 18.1099ZM30.1176 18.808C31.0161 18.808 31.8654 18.587 32.6494 18.1489L31.6737 16.4031C31.1884 16.6743 30.675 16.808 30.1176 16.808V18.808ZM32.6686 18.1379C33.4639 17.6701 34.0917 17.0144 34.5477 16.1936L32.7994 15.2224C32.5087 15.7456 32.1285 16.1352 31.6545 16.4141L32.6686 18.1379ZM34.5533 16.1835C35.0207 15.3188 35.2336 14.327 35.2336 13.244H33.2336C33.2336 14.065 33.0731 14.7159 32.7939 15.2325L34.5533 16.1835ZM56.3181 14.42V15.42H57.1653L57.3045 14.5844L56.3181 14.42ZM44.9781 14.42V13.42H43.8913L43.9816 14.503L44.9781 14.42ZM46.1541 17.052L45.4775 17.7883L45.4775 17.7883L46.1541 17.052ZM51.8101 16.128V15.128H51.1879L50.913 15.6861L51.8101 16.128ZM56.0381 16.128L56.996 16.4153L57.3822 15.128H56.0381V16.128ZM53.4621 19.824L54.0622 20.624L54.0696 20.6184L53.4621 19.824ZM44.7541 20.272L44.258 21.1402L44.2661 21.1449L44.2743 21.1494L44.7541 20.272ZM41.9821 17.444L41.1016 17.9181L41.1073 17.9285L41.9821 17.444ZM41.9821 9.016L41.1017 8.5419L41.1017 8.5419L41.9821 9.016ZM44.7261 6.216L45.2118 7.09016L45.2118 7.09016L44.7261 6.216ZM52.7341 6.188L52.2533 7.06483L52.2592 7.06802L52.7341 6.188ZM55.4501 8.904L54.5701 9.37893L54.5746 9.38731L54.5793 9.39559L55.4501 8.904ZM52.3701 11.788V12.788H53.3888L53.37 11.7695L52.3701 11.788ZM51.2781 9.38L50.6224 10.135L50.6282 10.14L50.634 10.1449L51.2781 9.38ZM46.2101 9.352L46.8732 10.1006L46.8745 10.0994L46.2101 9.352ZM45.0061 11.788L44.0162 11.6466L43.8531 12.788H45.0061V11.788ZM55.4301 12.908C55.4301 13.4251 55.3955 13.8727 55.3317 14.2556L57.3045 14.5844C57.39 14.0713 57.4301 13.5109 57.4301 12.908H55.4301ZM56.3181 13.42H44.9781V15.42H56.3181V13.42ZM43.9816 14.503C44.0914 15.8208 44.5666 16.9512 45.4775 17.7883L46.8308 16.3157C46.3604 15.8834 46.0515 15.2592 45.9747 14.337L43.9816 14.503ZM45.4775 17.7883C46.3672 18.6059 47.4639 19.004 48.7021 19.004V17.004C47.9243 17.004 47.3224 16.7674 46.8308 16.3157L45.4775 17.7883ZM48.7021 19.004C49.5751 19.004 50.3849 18.8154 51.0879 18.3911C51.7934 17.9653 52.3278 17.3401 52.7072 16.5698L50.913 15.6861C50.6764 16.1666 50.3848 16.4794 50.0544 16.6789C49.7213 16.8799 49.2851 17.004 48.7021 17.004V19.004ZM51.8101 17.128H56.0381V15.128H51.8101V17.128ZM55.0803 15.8407C54.6944 17.127 53.9612 18.1835 52.8547 19.0296L54.0696 20.6184C55.5017 19.5232 56.4859 18.1157 56.996 16.4153L55.0803 15.8407ZM52.8621 19.024C51.7933 19.8256 50.4547 20.252 48.7861 20.252V22.252C50.8135 22.252 52.5923 21.7264 54.0621 20.624L52.8621 19.024ZM48.7861 20.252C47.4439 20.252 46.2676 19.9599 45.2339 19.3946L44.2743 21.1494C45.63 21.8908 47.1417 22.252 48.7861 22.252V20.252ZM45.2503 19.4038C44.2372 18.8249 43.4425 18.0167 42.8569 16.9595L41.1073 17.9285C41.8658 19.298 42.919 20.3751 44.258 21.1402L45.2503 19.4038ZM42.8626 16.9699C42.2989 15.923 42.0021 14.6904 42.0021 13.244H40.0021C40.0021 14.9709 40.3587 16.5383 41.1017 17.9181L42.8626 16.9699ZM42.0021 13.244C42.0021 11.7767 42.2998 10.5354 42.8626 9.4901L41.1017 8.5419C40.3578 9.92331 40.0021 11.5006 40.0021 13.244H42.0021ZM42.8626 9.4901C43.4276 8.44079 44.2072 7.64827 45.2118 7.09016L44.2405 5.34184C42.8931 6.0904 41.8433 7.16454 41.1017 8.5419L42.8626 9.4901ZM45.2118 7.09016C46.2198 6.53017 47.4017 6.236 48.7861 6.236V4.236C47.1093 4.236 45.5845 4.59517 44.2405 5.34184L45.2118 7.09016ZM48.7861 6.236C50.1128 6.236 51.26 6.52009 52.2533 7.06481L53.215 5.31119C51.8936 4.58657 50.4088 4.236 48.7861 4.236V6.236ZM52.2592 7.06802C53.2635 7.61005 54.0281 8.37458 54.5701 9.37893L56.3301 8.42907C55.6028 7.08142 54.5567 6.03528 53.2091 5.30798L52.2592 7.06802ZM54.5793 9.39559C55.1369 10.3833 55.4301 11.5442 55.4301 12.908H57.4301C57.4301 11.2478 57.0701 9.7394 56.3209 8.41241L54.5793 9.39559ZM53.37 11.7695C53.3465 10.5014 52.8731 9.41577 51.9223 8.61509L50.634 10.1449C51.1018 10.5389 51.3564 11.0586 51.3703 11.8065L53.37 11.7695ZM51.9338 8.62497C51.0252 7.83587 49.9176 7.456 48.6741 7.456V9.456C49.484 9.456 50.1124 9.69213 50.6224 10.135L51.9338 8.62497ZM48.6741 7.456C47.4797 7.456 46.416 7.83102 45.5458 8.60459L46.8745 10.0994C47.3482 9.67831 47.9272 9.456 48.6741 9.456V7.456ZM45.5471 8.60341C44.6809 9.37058 44.1917 10.4179 44.0162 11.6466L45.9961 11.9294C46.1192 11.0675 46.4327 10.4907 46.8732 10.1006L45.5471 8.60341ZM45.0061 12.788H52.3701V10.788H45.0061V12.788ZM72.3674 7.028L71.6489 7.72363L71.6545 7.72933L72.3674 7.028ZM74.0754 21V22H75.0754V21H74.0754ZM70.1554 21H69.1554V22H70.1554V21ZM69.2314 9.604L68.4941 10.2798L68.5038 10.29L69.2314 9.604ZM64.1354 9.604L63.4084 8.91738L63.4078 8.91799L64.1354 9.604ZM63.2114 21V22H64.2114V21H63.2114ZM59.2914 21H58.2914V22H59.2914V21ZM59.2914 5.488V4.488H58.2914V5.488H59.2914ZM63.2114 5.488H64.2114V4.488H63.2114V5.488ZM63.2114 7.42H62.2114V10.3345L64.0007 8.03394L63.2114 7.42ZM65.1994 5.852L65.6211 6.75877L65.6301 6.75448L65.1994 5.852ZM67.8874 6.264C69.5028 6.264 70.7237 6.76804 71.649 7.72361L73.0858 6.33239C71.7337 4.93595 69.9679 4.264 67.8874 4.264V6.264ZM71.6545 7.72933C72.5605 8.65012 73.0754 9.99299 73.0754 11.9H75.0754C75.0754 9.62568 74.4516 7.72054 73.0802 6.32666L71.6545 7.72933ZM73.0754 11.9V21H75.0754V11.9H73.0754ZM74.0754 20H70.1554V22H74.0754V20ZM71.1554 21V12.432H69.1554V21H71.1554ZM71.1554 12.432C71.1554 11.0411 70.8063 9.81669 69.959 8.91799L68.5038 10.29C68.8884 10.698 69.1554 11.3589 69.1554 12.432H71.1554ZM69.9685 8.92828C69.131 8.01464 68.0044 7.596 66.7114 7.596V9.596C67.5464 9.596 68.0997 9.84936 68.4942 10.2797L69.9685 8.92828ZM66.7114 7.596C65.4049 7.596 64.2645 8.01089 63.4084 8.91738L64.8624 10.2906C65.2756 9.85311 65.8525 9.596 66.7114 9.596V7.596ZM63.4078 8.91799C62.5604 9.81669 62.2114 11.0411 62.2114 12.432H64.2114C64.2114 11.3589 64.4783 10.698 64.863 10.29L63.4078 8.91799ZM62.2114 12.432V21H64.2114V12.432H62.2114ZM63.2114 20H59.2914V22H63.2114V20ZM60.2914 21V5.488H58.2914V21H60.2914ZM59.2914 6.488H63.2114V4.488H59.2914V6.488ZM62.2114 5.488V7.42H64.2114V5.488H62.2114ZM64.0007 8.03394C64.4219 7.49241 64.9566 7.06781 65.6211 6.75872L64.7776 4.94528C63.8368 5.38286 63.0462 6.00359 62.422 6.80606L64.0007 8.03394ZM65.6301 6.75448C66.3081 6.43091 67.0556 6.264 67.8874 6.264V4.264C66.7778 4.264 65.7333 4.48909 64.7686 4.94952L65.6301 6.75448ZM77.7751 9.044L78.6525 9.52382L78.6556 9.5181L77.7751 9.044ZM80.4911 6.244L80.9827 7.11489L80.9932 7.10879L80.4911 6.244ZM89.2271 6.692L88.614 7.48199L88.6205 7.48705L88.6271 7.492L89.2271 6.692ZM91.7751 10.724V11.724H93.0525L92.7458 10.4839L91.7751 10.724ZM87.5471 10.724L86.5984 11.0402L86.8263 11.724H87.5471V10.724ZM86.3991 9.156L85.7991 9.956L85.815 9.96793L85.8314 9.97921L86.3991 9.156ZM81.7791 9.8L82.5547 10.4313L82.5617 10.4225L81.7791 9.8ZM81.7791 16.688L80.9964 17.3106L81.0035 17.3193L81.7791 16.688ZM87.5471 15.764V14.764H86.8323L86.6009 15.4403L87.5471 15.764ZM91.7751 15.764L92.744 16.0116L93.0628 14.764H91.7751V15.764ZM89.2271 19.768L89.8418 20.5567L89.8418 20.5567L89.2271 19.768ZM80.4911 20.272L79.9889 21.1369L79.9995 21.1428L80.4911 20.272ZM77.7751 17.472L76.8946 17.9461L76.8977 17.9518L77.7751 17.472ZM77.7951 13.244C77.7951 11.7763 78.0929 10.5471 78.6525 9.52381L76.8977 8.56419C76.1506 9.93028 75.7951 11.501 75.7951 13.244H77.7951ZM78.6556 9.5181C79.2228 8.46462 79.9961 7.67176 80.9827 7.11482L79.9995 5.37318C78.6714 6.12291 77.634 7.19671 76.8946 8.5699L78.6556 9.5181ZM80.9932 7.10879C81.9809 6.53529 83.1292 6.236 84.4671 6.236V4.236C82.8183 4.236 81.3159 4.6087 79.989 5.37921L80.9932 7.10879ZM84.4671 6.236C86.2167 6.236 87.5738 6.67471 88.614 7.48199L89.8402 5.90201C88.379 4.76796 86.5628 4.236 84.4671 4.236V6.236ZM88.6271 7.492C89.6886 8.28813 90.4229 9.42174 90.8043 10.9641L92.7458 10.4839C92.2686 8.55426 91.3043 6.99987 89.8271 5.892L88.6271 7.492ZM91.7751 9.724H87.5471V11.724H91.7751V9.724ZM88.4958 10.4078C88.2088 9.5468 87.7009 8.83904 86.9668 8.33279L85.8314 9.97921C86.18 10.2196 86.4374 10.5572 86.5984 11.0402L88.4958 10.4078ZM86.9991 8.356C86.2708 7.8098 85.395 7.568 84.4391 7.568V9.568C85.0512 9.568 85.482 9.7182 85.7991 9.956L86.9991 8.356ZM84.4391 7.568C83.0379 7.568 81.8538 8.09978 80.9965 9.17748L82.5617 10.4225C83.0111 9.85756 83.6003 9.568 84.4391 9.568V7.568ZM81.0035 9.16873C80.1528 10.214 79.7991 11.62 79.7991 13.244H81.7991C81.7991 11.8814 82.0988 10.9914 82.5547 10.4313L81.0035 9.16873ZM79.7991 13.244C79.7991 14.8549 80.1551 16.2528 80.9965 17.3105L82.5617 16.0655C82.0964 15.4805 81.7991 14.5825 81.7991 13.244H79.7991ZM81.0035 17.3193C81.8639 18.3763 83.0465 18.892 84.4391 18.892V16.892C83.5917 16.892 83.0009 16.605 82.5547 16.0567L81.0035 17.3193ZM84.4391 18.892C85.3808 18.892 86.2476 18.6805 86.971 18.1851C87.6993 17.6865 88.1948 16.9601 88.4933 16.0877L86.6009 15.4403C86.4141 15.9865 86.1489 16.3242 85.8411 16.5349C85.5286 16.7489 85.084 16.892 84.4391 16.892V18.892ZM87.5471 16.764H91.7751V14.764H87.5471V16.764ZM90.8062 15.5164C90.4272 16.9995 89.6931 18.1369 88.6124 18.9793L89.8418 20.5567C91.2998 19.4204 92.2643 17.8885 92.744 16.0116L90.8062 15.5164ZM88.6124 18.9793C87.5494 19.8078 86.1907 20.252 84.4671 20.252V22.252C86.5515 22.252 88.3661 21.7069 89.8418 20.5567L88.6124 18.9793ZM84.4671 20.252C83.1243 20.252 81.9722 19.9598 80.9827 19.4012L79.9995 21.1428C81.3247 21.8909 82.8232 22.252 84.4671 22.252V20.252ZM80.9932 19.4072C79.9966 18.8286 79.2198 18.0296 78.6525 16.9922L76.8977 17.9518C77.637 19.3037 78.6709 20.3714 79.989 21.1368L80.9932 19.4072ZM78.6556 16.9979C78.0927 15.9526 77.7951 14.7113 77.7951 13.244H75.7951C75.7951 14.9874 76.1508 16.5647 76.8946 17.9461L78.6556 16.9979ZM109.487 5.488L110.409 5.8755L110.992 4.488H109.487V5.488ZM99.8828 28.336V29.336H100.547L100.805 28.7235L99.8828 28.336ZM95.7108 28.336L94.7938 27.9373L94.1856 29.336H95.7108V28.336ZM99.0708 20.608L99.9879 21.0067L100.157 20.6189L99.9957 20.2278L99.0708 20.608ZM92.8548 5.488V4.488H91.3625L91.93 5.86823L92.8548 5.488ZM97.2508 5.488L98.1889 5.1414L97.9474 4.488H97.2508V5.488ZM101.255 16.324L100.317 16.6706L101.248 19.1915L102.191 16.6749L101.255 16.324ZM105.315 5.488V4.488H104.622L104.378 5.13714L105.315 5.488ZM108.565 5.1005L98.961 27.9485L100.805 28.7235L110.409 5.8755L108.565 5.1005ZM99.8828 27.336H95.7108V29.336H99.8828V27.336ZM96.6279 28.7347L99.9879 21.0067L98.1538 20.2093L94.7938 27.9373L96.6279 28.7347ZM99.9957 20.2278L93.7797 5.10777L91.93 5.86823L98.146 20.9882L99.9957 20.2278ZM92.8548 6.488H97.2508V4.488H92.8548V6.488ZM96.3128 5.8346L100.317 16.6706L102.193 15.9774L98.1889 5.1414L96.3128 5.8346ZM102.191 16.6749L106.251 5.83886L104.378 5.13714L100.318 15.9731L102.191 16.6749ZM105.315 6.488H109.487V4.488H105.315V6.488ZM111.572 20.552L110.865 21.2591L110.88 21.2738L110.895 21.2879L111.572 20.552ZM111.572 17.276L112.264 17.998L112.265 17.9974L111.572 17.276ZM115.044 17.276L114.337 17.9831L114.344 17.9906L114.352 17.998L115.044 17.276ZM115.044 20.552L115.736 21.274L115.744 21.2666L115.751 21.2591L115.044 20.552ZM113.336 20.196C112.845 20.196 112.509 20.055 112.249 19.8161L110.895 21.2879C111.569 21.9076 112.408 22.196 113.336 22.196V20.196ZM112.279 19.8449C112.025 19.5909 111.9 19.2974 111.9 18.9H109.9C109.9 19.8093 110.223 20.6171 110.865 21.2591L112.279 19.8449ZM111.9 18.9C111.9 18.5031 112.024 18.2278 112.264 17.998L110.88 16.554C110.224 17.1828 109.9 17.9902 109.9 18.9H111.9ZM112.265 17.9974C112.526 17.7462 112.858 17.604 113.336 17.604V15.604C112.396 15.604 111.551 15.9098 110.879 16.5546L112.265 17.9974ZM113.336 17.604C113.788 17.604 114.094 17.7405 114.337 17.9831L115.751 16.5689C115.098 15.9155 114.266 15.604 113.336 15.604V17.604ZM114.352 17.998C114.592 18.2278 114.716 18.5031 114.716 18.9H116.716C116.716 17.9902 116.392 17.1828 115.736 16.554L114.352 17.998ZM114.716 18.9C114.716 19.2974 114.591 19.5909 114.337 19.8449L115.751 21.2591C116.393 20.6171 116.716 19.8093 116.716 18.9H114.716ZM114.352 19.83C114.112 20.0601 113.8 20.196 113.336 20.196V22.196C114.253 22.196 115.08 21.9025 115.736 21.274L114.352 19.83Z" fill="#F21162"/>
</svg>
