<svg width="41" height="40" viewBox="0 0 41 40" fill="none" xmlns="http://www.w3.org/2000/svg">
<g clip-path="url(#clip0)">
<path d="M19.615 23.3849L10.135 32.8649C9.95988 33.0396 9.84052 33.2623 9.79202 33.5048C9.74353 33.7474 9.76808 33.9989 9.86256 34.2274C9.95704 34.456 10.1172 34.6514 10.3228 34.7889C10.5284 34.9265 10.7702 34.9999 11.0175 34.9999H29.9825C30.23 35.0004 30.4722 34.9273 30.6781 34.79C30.8841 34.6527 31.0447 34.4573 31.1395 34.2286C31.2343 33.9999 31.259 33.7482 31.2106 33.5055C31.1622 33.2627 31.0428 33.0398 30.8675 32.8649L21.385 23.3849C21.2689 23.2685 21.1309 23.1762 20.9791 23.1132C20.8272 23.0501 20.6644 23.0177 20.5 23.0177C20.3356 23.0177 20.1728 23.0501 20.0209 23.1132C19.869 23.1762 19.7311 23.2685 19.615 23.3849Z" fill="#F21162"/>
<path d="M29.035 27.5H36.75C37.0815 27.5 37.3995 27.3683 37.6339 27.1339C37.8683 26.8995 38 26.5815 38 26.25V8.75C38 8.41848 37.8683 8.10054 37.6339 7.86612C37.3995 7.6317 37.0815 7.5 36.75 7.5H4.25C3.91848 7.5 3.60054 7.6317 3.36612 7.86612C3.1317 8.10054 3 8.41848 3 8.75V26.25C3 26.5815 3.1317 26.8995 3.36612 27.1339C3.60054 27.3683 3.91848 27.5 4.25 27.5H11.965L9.465 30H4.25C3.25544 30 2.30161 29.6049 1.59835 28.9017C0.895088 28.1984 0.5 27.2446 0.5 26.25L0.5 8.75C0.5 7.75544 0.895088 6.80161 1.59835 6.09835C2.30161 5.39509 3.25544 5 4.25 5H36.75C37.7446 5 38.6984 5.39509 39.4016 6.09835C40.1049 6.80161 40.5 7.75544 40.5 8.75V26.25C40.5 27.2446 40.1049 28.1984 39.4016 28.9017C38.6984 29.6049 37.7446 30 36.75 30H31.535L29.035 27.5Z" fill="#F21162"/>
</g>
<defs>
<clipPath id="clip0">
<rect width="40" height="40" fill="white" transform="translate(0.5)"/>
</clipPath>
</defs>
</svg>
