<svg width="41" height="40" viewBox="0 0 41 40" fill="none" xmlns="http://www.w3.org/2000/svg">
<g clip-path="url(#clip0)">
<path d="M20.5 37.5C15.8587 37.5 11.4075 35.6563 8.12563 32.3744C4.84374 29.0925 3 24.6413 3 20C3 15.3587 4.84374 10.9075 8.12563 7.62563C11.4075 4.34374 15.8587 2.5 20.5 2.5C25.1413 2.5 29.5925 4.34374 32.8744 7.62563C36.1563 10.9075 38 15.3587 38 20C38 24.6413 36.1563 29.0925 32.8744 32.3744C29.5925 35.6563 25.1413 37.5 20.5 37.5ZM20.5 40C25.8043 40 30.8914 37.8929 34.6421 34.1421C38.3929 30.3914 40.5 25.3043 40.5 20C40.5 14.6957 38.3929 9.60859 34.6421 5.85786C30.8914 2.10714 25.8043 0 20.5 0C15.1957 0 10.1086 2.10714 6.35786 5.85786C2.60714 9.60859 0.5 14.6957 0.5 20C0.5 25.3043 2.60714 30.3914 6.35786 34.1421C10.1086 37.8929 15.1957 40 20.5 40Z" fill="#F21162"/>
<path d="M28.7875 25.035C29.0248 24.9791 29.2733 24.9939 29.5023 25.0774C29.7314 25.161 29.931 25.3097 30.0766 25.5052C30.2222 25.7008 30.3074 25.9346 30.3218 26.178C30.3362 26.4214 30.2791 26.6637 30.1575 26.875C29.1703 28.5859 27.7499 30.0065 26.0391 30.994C24.3284 31.9815 22.3878 32.5009 20.4125 32.5C18.4372 32.5009 16.4966 31.9815 14.7859 30.994C13.0751 30.0065 11.6547 28.5859 10.6675 26.875C10.5459 26.6637 10.4888 26.4214 10.5032 26.178C10.5176 25.9346 10.6028 25.7008 10.7484 25.5052C10.894 25.3097 11.0936 25.161 11.3227 25.0774C11.5517 24.9939 11.8002 24.9791 12.0375 25.035H12.05L12.0925 25.0475L12.26 25.085L12.89 25.2225C13.4275 25.3375 14.1775 25.4925 15.0325 25.645C16.765 25.955 18.8375 26.25 20.4125 26.25C21.9875 26.25 24.0625 25.955 25.7925 25.645C26.7205 25.478 27.6449 25.2913 28.565 25.085L28.7325 25.0475L28.775 25.0375L28.7875 25.0325V25.035ZM12.39 11.415C14.2975 7.855 22.44 11.115 14.77 20C3.53 16.01 8.895 9.255 12.39 11.415ZM28.61 11.415C32.105 9.255 37.47 16.01 26.23 20C18.5625 11.115 26.705 7.855 28.61 11.415Z" fill="#F21162"/>
</g>
<defs>
<clipPath id="clip0">
<rect width="40" height="40" fill="white" transform="translate(0.5)"/>
</clipPath>
</defs>
</svg>
