<svg width="22" height="19" viewBox="0 0 22 19" fill="none" xmlns="http://www.w3.org/2000/svg">
<path d="M6.91075 18.625C15.213 18.625 19.7546 11.7459 19.7546 5.79073C19.7546 5.59823 19.7546 5.40298 19.7464 5.21048C20.6306 4.57039 21.3937 3.77794 22 2.87023C21.1741 3.2344 20.2988 3.47441 19.4026 3.58248C20.3466 3.01823 21.0536 2.13043 21.3923 1.0841C20.5054 1.60952 19.5346 1.97837 18.5226 2.17448C17.8423 1.44988 16.9419 0.969863 15.9611 0.808768C14.9803 0.647673 13.9737 0.814494 13.0973 1.28339C12.2209 1.75229 11.5236 2.49709 11.1134 3.40243C10.7031 4.30778 10.6029 5.32313 10.8281 6.29123C9.03339 6.20124 7.27762 5.735 5.67468 4.92275C4.07175 4.1105 2.65744 2.97039 1.5235 1.57635C0.947843 2.57059 0.772164 3.74665 1.03214 4.86572C1.29211 5.98478 1.96825 6.96296 2.92325 7.6016C2.20762 7.57729 1.50772 7.38512 0.88 7.0406V7.10248C0.881234 8.14401 1.24205 9.15318 1.90145 9.9594C2.56086 10.7656 3.4784 11.3194 4.499 11.5272C4.11161 11.6339 3.71144 11.6871 3.30963 11.6854C3.02635 11.6862 2.74365 11.66 2.46537 11.607C2.75383 12.5036 3.3155 13.2875 4.07171 13.8489C4.82793 14.4103 5.74081 14.7211 6.6825 14.7379C5.08276 15.9943 3.10668 16.6758 1.0725 16.6725C0.714066 16.674 0.355882 16.6533 0 16.6106C2.06458 17.9268 4.46228 18.6257 6.91075 18.625Z" fill="white"/>
</svg>
