<svg width="22" height="17" viewBox="0 0 22 17" fill="none" xmlns="http://www.w3.org/2000/svg">
<path d="M11.0701 0.748047H11.1925C12.3227 0.752172 18.0496 0.793422 19.5937 1.20867C20.0606 1.3354 20.4859 1.58243 20.8273 1.92506C21.1688 2.26769 21.4143 2.69393 21.5394 3.16117C21.6782 3.68367 21.7759 4.3753 21.8419 5.08892L21.8556 5.23192L21.8859 5.58942L21.8969 5.73242C21.9862 6.98917 21.9972 8.16617 21.9986 8.4233V8.52642C21.9972 8.79317 21.9849 10.0499 21.8859 11.3589L21.8749 11.5033L21.8625 11.6463C21.7937 12.4328 21.692 13.2138 21.5394 13.7885C21.4147 14.256 21.1693 14.6824 20.8278 15.0251C20.4863 15.3678 20.0607 15.6147 19.5937 15.741C17.9987 16.17 11.9364 16.2003 11.0962 16.2017H10.901C10.4761 16.2017 8.71887 16.1934 6.87637 16.1302L6.64262 16.1219L6.523 16.1164L6.28787 16.1068L6.05275 16.0972C4.5265 16.0298 3.07312 15.9212 2.4035 15.7397C1.93667 15.6134 1.51121 15.3668 1.16975 15.0243C0.828277 14.6819 0.582789 14.2557 0.457875 13.7885C0.30525 13.2152 0.2035 12.4328 0.13475 11.6463L0.12375 11.5019L0.11275 11.3589C0.0448904 10.4272 0.00728732 9.49356 0 8.55942L0 8.3903C0.00275 8.09467 0.01375 7.07305 0.088 5.94555L0.097625 5.80392L0.10175 5.73242L0.11275 5.58942L0.143 5.23192L0.15675 5.08892C0.22275 4.3753 0.320375 3.6823 0.45925 3.16117C0.583954 2.69374 0.829348 2.2673 1.17083 1.92461C1.51231 1.58192 1.93788 1.33502 2.40487 1.20867C3.0745 1.02992 4.52787 0.919922 6.05412 0.851172L6.28787 0.841547L6.52437 0.833297L6.64262 0.829172L6.87775 0.819547C8.18635 0.777437 9.49548 0.75406 10.8047 0.749422H11.0701V0.748047ZM8.8 5.1618V11.7865L14.5159 8.47555L8.8 5.1618Z" fill="white"/>
</svg>
